<?xml version="1.0" encoding="utf-8"?>
<!-- Generator: Adobe Illustrator 16.0.0, SVG Export Plug-In . SVG Version: 6.00 Build 0)  -->
<!DOCTYPE svg PUBLIC "-//W3C//DTD SVG 1.1//EN" "http://www.w3.org/Graphics/SVG/1.1/DTD/svg11.dtd">
<svg version="1.1" id="Layer_1" xmlns="http://www.w3.org/2000/svg" xmlns:xlink="http://www.w3.org/1999/xlink" x="0px" y="0px"
	 width="100px" height="100px" viewBox="0 0 100 100" enable-background="new 0 0 100 100" xml:space="preserve">
<g>
	<polygon fill="#BC0404" points="90.977,60.441 49.715,97.404 8.455,60.441 	"/>
	<path fill="#470202" d="M49.715,99.418L4.532,58.941h90.367L49.715,99.418z M12.377,61.941l37.338,33.449l37.338-33.449H12.377z"/>
</g>
<g>
	<polygon fill="#038903" points="8.455,39.557 49.715,2.595 90.977,39.557 	"/>
	<path fill="#002800" d="M94.899,41.057H4.532L49.715,0.581L94.899,41.057z M12.377,38.057h74.677L49.715,4.608L12.377,38.057z"/>
</g>
<path stroke="#282800" stroke-width="3" d="M76.13,50c0,14.592-11.834,26.407-26.417,26.407c-14.588,0-26.413-11.814-26.413-26.407
	c0-14.575,11.825-26.408,26.413-26.408C64.296,23.593,76.13,35.425,76.13,50z"/>
<g>
	<path fill="#FFFFFF" d="M63.333,44.969c0.199-0.656,0.371-1.316,0.513-1.979c0.143-0.662,0.215-1.229,0.215-1.699
		c0-0.742-0.184-1.287-0.547-1.637c-0.362-0.349-0.909-0.552-1.635-0.609v-1.411h8.918v1.411c-0.528,0.114-0.97,0.317-1.326,0.609
		c-0.357,0.293-0.679,0.702-0.964,1.23c-0.284,0.527-0.641,1.411-1.068,2.651L59.42,66.973h-5.09l-4.833-20.079l-5.731,20.079H38.42
		l-6.437-23.951c-0.314-1.168-0.592-1.981-0.834-2.438c-0.243-0.456-0.514-0.798-0.813-1.026c-0.299-0.228-0.678-0.399-1.133-0.514
		v-1.411h11.505v1.411c-0.741,0.085-1.291,0.293-1.646,0.621c-0.357,0.328-0.535,0.791-0.535,1.39c0,0.756,0.207,1.932,0.621,3.528
		l3.699,14.862l6.138-21.812h4.833l5.004,21.812L63.333,44.969z"/>
</g>
</svg>
