<?xml version="1.0" encoding="utf-8"?>
<!-- Generator: Adobe Illustrator 16.0.0, SVG Export Plug-In . SVG Version: 6.00 Build 0)  -->
<!DOCTYPE svg PUBLIC "-//W3C//DTD SVG 1.1//EN" "http://www.w3.org/Graphics/SVG/1.1/DTD/svg11.dtd">
<svg version="1.1" id="Layer_1" xmlns="http://www.w3.org/2000/svg" xmlns:xlink="http://www.w3.org/1999/xlink" x="0px" y="0px"
	 width="100px" height="100px" viewBox="0 0 100 100" enable-background="new 0 0 100 100" xml:space="preserve">
<polygon fill="#E82E2F" points="23.378,28.193 78.477,28.193 84.475,22.195 84.475,0 17.374,0 17.374,22.188 "/>
<polygon fill="#990000" points="72.402,19.677 72.402,0 78.445,0 78.445,22.188 72.44,28.193 63.887,28.193 "/>
<polygon fill="#990000" points="28.484,19.677 28.484,0 22.442,0 22.442,22.188 28.446,28.193 37,28.193 "/>
<polygon fill="#660000" points="79.098,29.693 22.756,29.693 15.874,22.81 15.874,0 18.874,0 18.874,21.567 24,26.693 
	77.855,26.693 82.975,21.574 82.975,0 85.975,0 85.975,22.816 "/>
<rect x="42.19" fill="#FFFFFF" width="16.287" height="26.49"/>
<path fill="#FFEF39" d="M75.826,47.932c0-7.346-2.087-14.195-5.686-19.994c-5.684-3.516-12.369-5.545-19.525-5.545
	c-20.661,0-37.405,16.896-37.405,37.741c0,7.349,2.087,14.202,5.687,20.003c5.682,3.513,12.364,5.541,19.517,5.541
	C59.077,85.678,75.826,68.781,75.826,47.932z"/>
<path fill="#ECA700" d="M70.141,27.938c3.599,5.799,5.686,12.648,5.686,19.994c0,20.85-16.749,37.746-37.413,37.746
	c-7.153,0-13.835-2.028-19.517-5.541c6.611,10.654,18.34,17.742,31.719,17.742c20.664,0,37.412-16.895,37.412-37.745
	C88.027,46.508,80.869,34.572,70.141,27.938z"/>
<path fill="none" stroke="#B66800" stroke-miterlimit="10" d="M88.027,60.134c0,20.851-16.748,37.745-37.412,37.745
	c-20.661,0-37.405-16.895-37.405-37.745c0-20.845,16.744-37.741,37.405-37.741C71.279,22.393,88.027,39.289,88.027,60.134z"/>
<path fill="#FFF4DE" d="M21.064,60.652c0-16.784,13.489-30.39,30.124-30.39c8.148,0,15.539,3.271,20.964,8.576
	c-0.868-2.737-2.052-5.335-3.536-7.726c-5.162-3.191-11.23-5.034-17.729-5.034c-18.76,0-33.963,15.341-33.963,34.268
	c0,6.673,1.895,12.896,5.164,18.162c2.373,1.468,4.946,2.634,7.656,3.481C24.378,76.502,21.064,68.969,21.064,60.652z"/>
<path fill="#B66800" d="M50.615,99.379c-21.453,0-38.905-17.605-38.905-39.245c0-21.638,17.453-39.241,38.905-39.241
	c21.457,0,38.912,17.604,38.912,39.241C89.527,81.773,72.072,99.379,50.615,99.379z M50.615,23.893
	c-19.798,0-35.905,16.258-35.905,36.241c0,19.985,16.107,36.245,35.905,36.245c19.803,0,35.912-16.26,35.912-36.245
	C86.527,40.15,70.418,23.893,50.615,23.893z"/>
<g>
	<path fill="#F9E978" d="M78.279,60.471c0,15.227-12.244,27.572-27.331,27.572c-15.091,0-27.329-12.346-27.329-27.572
		s12.237-27.569,27.329-27.569C66.035,32.901,78.279,45.244,78.279,60.471z"/>
	<path fill="#FECE56" d="M50.948,90.043c-16.172,0-29.329-13.266-29.329-29.572c0-16.305,13.157-29.569,29.329-29.569
		c16.173,0,29.331,13.265,29.331,29.569C80.279,76.777,67.121,90.043,50.948,90.043z M50.948,34.901
		c-13.966,0-25.329,11.471-25.329,25.569c0,14.101,11.362,25.572,25.329,25.572c13.968,0,25.331-11.472,25.331-25.572
		C76.279,46.372,64.916,34.901,50.948,34.901z"/>
</g>
<g>
	<path fill="#772800" d="M51.978,54.867L45.19,78.561h-3.436l-6.172-23.035c-0.254-0.961-0.488-1.746-0.7-2.354
		c-0.212-0.608-0.424-1.085-0.636-1.432c-0.212-0.347-0.442-0.608-0.689-0.785s-0.604-0.329-1.071-0.456v-1.039h9.078v1.039
		c-0.877,0.17-1.488,0.424-1.835,0.764s-0.52,0.813-0.52,1.422c0,0.494,0.063,1.081,0.191,1.76s0.304,1.449,0.53,2.313l4.263,16.756
		l6.831-24.053h3.563l5.537,24.074l5.005-16.184c0.608-1.966,0.912-3.365,0.912-4.2c0-0.862-0.181-1.484-0.54-1.866
		c-0.361-0.382-0.959-0.644-1.793-0.785v-1.039h8.357v1.039c-0.425,0.142-0.764,0.301-1.019,0.478s-0.499,0.417-0.731,0.722
		c-0.233,0.304-0.488,0.773-0.764,1.41s-0.598,1.492-0.965,2.566l-7.721,22.887h-3.033L51.978,54.867z"/>
</g>
<g>
	<path fill="#ECA700" d="M50.412,52.918l-6.788,23.691h-3.436l-6.172-23.034c-0.254-0.962-0.488-1.747-0.7-2.354
		c-0.212-0.607-0.424-1.085-0.636-1.432c-0.212-0.347-0.442-0.607-0.689-0.785c-0.248-0.176-0.604-0.328-1.071-0.456v-1.039h9.078
		v1.039c-0.877,0.17-1.488,0.425-1.835,0.764s-0.52,0.813-0.52,1.421c0,0.496,0.063,1.082,0.191,1.761s0.304,1.45,0.53,2.312
		l4.263,16.757l6.83-24.053h3.564l5.535,24.074l5.006-16.185c0.607-1.965,0.912-3.365,0.912-4.199c0-0.862-0.18-1.484-0.541-1.866
		c-0.36-0.382-0.958-0.644-1.792-0.785v-1.039h8.356v1.039c-0.424,0.142-0.764,0.301-1.018,0.478s-0.498,0.417-0.732,0.721
		c-0.232,0.305-0.487,0.774-0.763,1.41c-0.276,0.637-0.598,1.492-0.966,2.567l-7.721,22.886h-3.033L50.412,52.918z"/>
</g>
</svg>
