<?xml version="1.0" encoding="utf-8"?>
<!-- Generator: Adobe Illustrator 16.0.0, SVG Export Plug-In . SVG Version: 6.00 Build 0)  -->
<!DOCTYPE svg PUBLIC "-//W3C//DTD SVG 1.1//EN" "http://www.w3.org/Graphics/SVG/1.1/DTD/svg11.dtd">
<svg version="1.1" id="Layer_1" xmlns="http://www.w3.org/2000/svg" xmlns:xlink="http://www.w3.org/1999/xlink" x="0px" y="0px"
	 width="100px" height="100px" viewBox="0 0 100 100" enable-background="new 0 0 100 100" xml:space="preserve">
<path fill="#FFFFFF" d="M46.925,94.624h7.659l3.352-3.351V81.269c0-14.63,6.944-21.994,7.723-22.772
	c3.335-3.695,5.171-8.468,5.171-13.448c0-11.068-9.005-20.073-20.074-20.073S30.681,33.98,30.681,45.048
	c0,4.98,1.836,9.755,5.17,13.448c0.78,0.779,7.723,8.143,7.723,22.772v10.005L46.925,94.624z"/>
<path d="M50.755,20.883c-13.324,0-24.164,10.841-24.164,24.165c0,6.017,2.226,11.784,6.267,16.237l0.09,0.092
	c0.065,0.064,6.536,6.568,6.536,19.892v11.698l5.747,5.748h11.049l5.746-5.748V81.269c0-13.323,6.471-19.827,6.529-19.884l0.097-0.1
	c4.042-4.454,6.268-10.221,6.268-16.237C74.919,31.724,64.079,20.883,50.755,20.883z M43.568,81.091l14.375-0.081
	c-0.001,0.088-0.008,0.17-0.008,0.259v2.759l-14.362,0.082v-2.841C43.573,81.207,43.568,81.152,43.568,81.091z M43.573,86.154
	l14.362-0.082v3.019l-14.362,0.081V86.154z M54.584,94.624h-7.659l-3.352-3.351v-0.056l14.362-0.081v0.137L54.584,94.624z
	 M65.658,58.496c-0.736,0.736-6.98,7.373-7.655,20.467l-14.494,0.082c-0.653-13.146-6.919-19.811-7.658-20.549
	c-3.334-3.693-5.17-8.468-5.17-13.448c0-11.068,9.005-20.073,20.074-20.073s20.074,9.005,20.074,20.073
	C70.829,50.028,68.993,54.801,65.658,58.496z"/>
<path d="M50.755,16.229c-1.129,0-2.045-0.916-2.045-2.045V3.331c0-1.13,0.916-2.046,2.045-2.046S52.8,2.201,52.8,3.331v10.853
	C52.8,15.313,51.884,16.229,50.755,16.229z"/>
<path d="M28.932,25.271c-0.523,0-1.047-0.2-1.446-0.599l-7.674-7.675c-0.8-0.799-0.8-2.094,0-2.893c0.799-0.799,2.093-0.799,2.893,0
	l7.673,7.674c0.8,0.799,0.8,2.094,0,2.893C29.979,25.07,29.455,25.271,28.932,25.271z"/>
<path d="M19.892,47.094H9.036c-1.13,0-2.045-0.916-2.045-2.046c0-1.129,0.915-2.045,2.045-2.045h10.855
	c1.129,0,2.045,0.916,2.045,2.045C21.937,46.178,21.021,47.094,19.892,47.094z"/>
<path d="M28.932,25.271c-0.523,0-1.047-0.2-1.446-0.599l-7.674-7.675c-0.8-0.799-0.8-2.094,0-2.893c0.799-0.799,2.093-0.799,2.893,0
	l7.673,7.674c0.8,0.799,0.8,2.094,0,2.893C29.979,25.07,29.455,25.271,28.932,25.271z"/>
<path d="M19.892,47.094H9.036c-1.13,0-2.045-0.916-2.045-2.046c0-1.129,0.915-2.045,2.045-2.045h10.855
	c1.129,0,2.045,0.916,2.045,2.045C21.937,46.178,21.021,47.094,19.892,47.094z"/>
<path d="M72.578,25.271c-0.523,0-1.047-0.2-1.445-0.599c-0.8-0.799-0.8-2.094,0-2.893l7.673-7.674c0.8-0.799,2.094-0.799,2.893,0
	c0.8,0.799,0.8,2.093,0,2.893l-7.674,7.675C73.625,25.07,73.102,25.271,72.578,25.271z"/>
<path d="M92.473,47.094H81.618c-1.129,0-2.045-0.916-2.045-2.046c0-1.129,0.916-2.045,2.045-2.045h10.854
	c1.13,0,2.045,0.916,2.045,2.045C94.518,46.178,93.603,47.094,92.473,47.094z"/>
</svg>
