<?xml version="1.0" encoding="utf-8"?>
<!-- Generator: Adobe Illustrator 16.0.0, SVG Export Plug-In . SVG Version: 6.00 Build 0)  -->
<!DOCTYPE svg PUBLIC "-//W3C//DTD SVG 1.1//EN" "http://www.w3.org/Graphics/SVG/1.1/DTD/svg11.dtd">
<svg version="1.1" id="Layer_1" xmlns="http://www.w3.org/2000/svg" xmlns:xlink="http://www.w3.org/1999/xlink" x="0px" y="0px"
	 width="100px" height="100px" viewBox="0 0 100 100" enable-background="new 0 0 100 100" xml:space="preserve">
<path fill="#FFFFFF" d="M43.26,35.062c0,0-4.726-15.63-27.231-10.059C16.029,25.003,14.953,48.084,43.26,35.062z"/>
<path fill="#FFFFFF" d="M86.181,30.345c-21.402-8.916-28.44,5.82-28.44,5.82C83.747,53.322,86.181,30.345,86.181,30.345z"/>
<path d="M95.515,32.955c-0.018-0.047-0.05-0.091-0.076-0.137c1.7-5.929,3.512-10.875,4.194-11.693c0,0-3.106-0.917-9.476-0.721
	c0,0-19.512-6.027-28.287-1.022c-8.777,5.007-7.897,5.391-10.396,5.426c-2.467-0.413-1.538-0.659-9.455-6.938
	c-7.918-6.277-28.117-3.273-28.117-3.273c-6.265-1.158-9.476-0.722-9.476-0.722c0.576,0.953,1.688,6.542,2.478,13.014
	c-6.577,8.472-9.879,21.199-2.42,30.003c3.983,4.701,10.378,5.266,16.127,5.12c5.461-0.138,14.3-0.623,17.822,4.921
	c1.561,2.454,6.058-1.031,4.314-3.772c-5.917-9.311-19.124-4.963-28.145-5.686C2.618,56.516,3.48,44.587,7.681,35.491
	c0.111,2.07,0.154,4.065,0.099,5.868c-0.305,9.962,17.119,10.604,18.023,10.674c0.903,0.069,13.768,0.85,17.685-5.596
	c3.917-6.446,6.362-5.658,6.767-5.627c0.403,0.032,2.939-0.378,5.835,6.588c2.897,6.965,15.731,8.141,16.636,8.209
	c0.903,0.069,18.223,2.071,19.43-7.822c0.242-1.98,0.639-4.177,1.125-6.434c0.545,3.65,0.612,7.355-0.07,10.898
	c-1.264,6.563-7.493,8.111-13.071,9.847c-14.135,4.401-31.291,9.52-37.059,24.767c-0.44,1.167,7.482,4.222,7.936,3.024
	c6.127-16.196,21.47-21.646,36.131-26.553c5.852-1.953,9.73-4.078,10.978-10.549C99.354,46.4,97.652,38.988,95.515,32.955z
	 M16.272,25.214c22.436-5.554,27.147,10.028,27.147,10.028C15.2,48.224,16.272,25.214,16.272,25.214z M57.855,36.341
	c0,0,7.017-14.69,28.353-5.802C86.208,30.54,83.782,53.446,57.855,36.341z"/>
</svg>
