<?xml version="1.0" encoding="utf-8"?>
<!-- Generator: Adobe Illustrator 16.0.0, SVG Export Plug-In . SVG Version: 6.00 Build 0)  -->
<!DOCTYPE svg PUBLIC "-//W3C//DTD SVG 1.1//EN" "http://www.w3.org/Graphics/SVG/1.1/DTD/svg11.dtd">
<svg version="1.1" id="Layer_1" xmlns="http://www.w3.org/2000/svg" xmlns:xlink="http://www.w3.org/1999/xlink" x="0px" y="0px"
	 width="100px" height="100px" viewBox="0 0 100 100" enable-background="new 0 0 100 100" xml:space="preserve">
<path fill="#FFCC05" d="M16.39,56.61V55.8c0.068-0.297,0.112-0.475,0.114-0.484c0.068-0.269,0.019-0.539-0.114-0.76v-1.511
	c0-0.553-0.448-1-1-1s-1,0.447-1,1v0.857c-0.469,0.204-0.722,0.725-0.558,1.22c0.108,0.327,0.242,0.747,0.388,1.223
	c-0.441,2.077-1.167,6.002-1.316,9.985c-0.021,0.552,0.41,1.016,0.962,1.036c0.013,0.001,0.025,0.001,0.038,0.001
	c0.348,0,0.643-0.189,0.823-0.463c0.177,0.16,0.406,0.264,0.663,0.264c0.464,0,0.836-0.322,0.95-0.751
	c0.055,0.468,0.418,0.851,0.905,0.885c0.023,0.001,0.046,0.002,0.069,0.002c0.521,0,0.96-0.403,0.997-0.932
	C18.471,64.04,17.207,59.351,16.39,56.61z"/>
<path fill="#C99B09" d="M12.088,66.463c-0.013,0-0.025,0-0.038-0.001c-0.552-0.021-0.982-0.484-0.962-1.036
	c0.213-5.687,1.602-11.267,1.661-11.501c0.135-0.536,0.676-0.859,1.213-0.727c0.536,0.135,0.861,0.678,0.726,1.213
	c-0.014,0.056-1.396,5.619-1.601,11.089C13.067,66.039,12.624,66.463,12.088,66.463z"/>
<path fill="#C99B09" d="M18.957,66.563c-0.023,0-0.046-0.001-0.069-0.002c-0.551-0.038-0.967-0.516-0.929-1.066
	c0.168-2.449-1.736-8.853-2.484-11.113c-0.174-0.524,0.111-1.09,0.635-1.264c0.525-0.171,1.091,0.111,1.263,0.635
	c0.115,0.348,2.81,8.538,2.581,11.879C19.917,66.16,19.478,66.563,18.957,66.563z"/>
<polygon points="50.24,57.327 1.563,39.835 50.24,22.343 98.92,39.835 "/>
<g>
	<path d="M50.24,61.376L24.281,52.05v9.233c0,9.202,11.621,16.657,25.963,16.657c14.338,0,25.957-7.455,25.957-16.657v-9.238
		L50.24,61.376z"/>
</g>
<path fill="#FFCC05" d="M50.242,37.23c-2.514,0-4.569,0.978-4.904,2.247l-30.105,4.182c-0.494,0.068-0.862,0.491-0.862,0.99v3.195
	c-1.708,0.445-2.975,1.985-2.975,3.833c0,2.194,1.779,3.975,3.975,3.975c2.192,0,3.976-1.78,3.976-3.975
	c0-1.848-1.269-3.387-2.976-3.833v-2.324l29.871-4.149c0.904,0.645,2.353,1.068,4,1.068c2.746,0,4.973-1.164,4.973-2.604
	S52.988,37.23,50.242,37.23z"/>
<path fill="#C99B09" d="M18.471,51.678c0,1.728-1.405,3.13-3.131,3.13c-1.729,0,1.099-1.402,1.099-3.13
	c0-1.729-2.828-3.131-1.099-3.131C17.066,48.547,18.471,49.949,18.471,51.678z"/>
</svg>
