<?xml version="1.0" encoding="utf-8"?>
<!-- Generator: Adobe Illustrator 16.0.0, SVG Export Plug-In . SVG Version: 6.00 Build 0)  -->
<!DOCTYPE svg PUBLIC "-//W3C//DTD SVG 1.1//EN" "http://www.w3.org/Graphics/SVG/1.1/DTD/svg11.dtd">
<svg version="1.1" id="Layer_1" xmlns="http://www.w3.org/2000/svg" xmlns:xlink="http://www.w3.org/1999/xlink" x="0px" y="0px"
	 width="100px" height="100px" viewBox="0 0 100 100" enable-background="new 0 0 100 100" xml:space="preserve">
<g>
	<path fill="#FFCC05" d="M30.183,39.537c7.478,17.559,49.634,54.285,49.634,54.285l0.107-13.465l15.378-1.124
		c0,0-41.591-31.703-49.258-44.762L30.183,39.537z"/>
	<path fill="#C16900" d="M81.291,97.096l-2.46-2.143C77.1,93.444,36.329,57.797,28.803,40.125l-0.646-1.516l18.573-5.932
		l0.607,1.035c7.43,12.656,48.459,44.013,48.874,44.328l3.148,2.4l-17.947,1.313L81.291,97.096z M32.263,40.447
		c7.584,15.007,37.29,42.201,46.08,50.064l0.093-11.55l12.844-0.938C81.674,70.55,53.078,47.82,45.393,36.254L32.263,40.447z"/>
</g>
<g>
	<path fill="#272469" d="M65.793,35.678c-5.707,18.21-44.029,58.92-44.029,58.92l-1.438-13.387l-15.414,0.4
		c0,0,38.257-35.657,44.599-49.408L65.793,35.678z"/>
	<path fill="#0B0B33" d="M20.621,98l-1.639-15.254L0.992,83.214l2.896-2.7c0.381-0.354,38.113-35.612,44.259-48.939l0.502-1.089
		l19.067,4.069l-0.492,1.572c-5.744,18.328-42.794,57.827-44.369,59.5L20.621,98z M21.669,79.676l1.234,11.482
		c7.968-8.69,34.843-38.688,40.91-54.369l-13.479-2.876C43.827,46.18,17.615,71.624,8.795,80.01L21.669,79.676z"/>
</g>
<g>
	<path fill="#F24D27" d="M76.189,29.972c0,15.134-12.272,27.385-27.395,27.385c-15.128,0-27.391-12.251-27.391-27.385
		c0-15.114,12.263-27.385,27.391-27.385C63.917,2.587,76.189,14.857,76.189,29.972z"/>
	<path fill="#660000" d="M48.795,58.856c-15.93,0-28.891-12.958-28.891-28.885S32.865,1.087,48.795,1.087
		c15.933,0,28.895,12.958,28.895,28.885S64.728,58.856,48.795,58.856z M48.795,4.087c-14.276,0-25.891,11.612-25.891,25.885
		s11.614,25.885,25.891,25.885c14.278,0,25.895-11.612,25.895-25.885S63.073,4.087,48.795,4.087z"/>
</g>
<g>
	<path fill="#210000" d="M63.313,26.329c0.188-0.621,0.351-1.246,0.485-1.874c0.135-0.627,0.203-1.164,0.203-1.609
		c0-0.702-0.173-1.219-0.517-1.55c-0.345-0.33-0.861-0.522-1.55-0.577v-1.336h8.445v1.336c-0.5,0.108-0.918,0.301-1.256,0.577
		c-0.338,0.277-0.642,0.665-0.911,1.165c-0.271,0.499-0.607,1.336-1.013,2.511l-7.594,22.195h-4.82L50.21,28.151l-5.428,19.016
		H39.72l-6.096-22.682c-0.298-1.106-0.561-1.876-0.79-2.309c-0.229-0.432-0.486-0.756-0.77-0.972s-0.642-0.378-1.073-0.486v-1.336
		h10.896v1.336c-0.702,0.081-1.223,0.277-1.56,0.588c-0.338,0.311-0.507,0.749-0.507,1.316c0,0.716,0.196,1.829,0.588,3.341
		l3.503,14.075l5.813-20.656H54.3l4.739,20.656L63.313,26.329z"/>
</g>
<g>
	<path fill="#660000" d="M61.424,25.329c0.188-0.621,0.351-1.246,0.485-1.874c0.135-0.627,0.203-1.164,0.203-1.609
		c0-0.702-0.173-1.219-0.517-1.55c-0.345-0.33-0.861-0.522-1.55-0.577v-1.336h8.445v1.336c-0.5,0.108-0.918,0.301-1.256,0.577
		c-0.338,0.277-0.642,0.665-0.911,1.165c-0.271,0.499-0.607,1.336-1.013,2.511l-7.594,22.195h-4.82l-4.576-19.016l-5.428,19.016
		h-5.063l-6.096-22.682c-0.298-1.106-0.561-1.876-0.79-2.309c-0.229-0.432-0.486-0.756-0.77-0.972s-0.642-0.378-1.073-0.486v-1.336
		h10.896v1.336c-0.702,0.081-1.223,0.277-1.56,0.588c-0.338,0.311-0.507,0.749-0.507,1.316c0,0.716,0.196,1.829,0.588,3.341
		l3.503,14.075l5.813-20.656h4.576l4.739,20.656L61.424,25.329z"/>
</g>
</svg>
