<?xml version="1.0" encoding="utf-8"?>
<!-- Generator: Adobe Illustrator 16.0.0, SVG Export Plug-In . SVG Version: 6.00 Build 0)  -->
<!DOCTYPE svg PUBLIC "-//W3C//DTD SVG 1.1//EN" "http://www.w3.org/Graphics/SVG/1.1/DTD/svg11.dtd">
<svg version="1.1" id="Layer_1" xmlns="http://www.w3.org/2000/svg" xmlns:xlink="http://www.w3.org/1999/xlink" x="0px" y="0px"
	 width="100px" height="100px" viewBox="0 0 100 100" enable-background="new 0 0 100 100" xml:space="preserve">
<path fill="#FFFFFF" d="M79.421,40.832c0,21.148-17.146,38.293-38.293,38.293c-21.149,0-38.293-17.145-38.293-38.293
	c0-21.148,17.144-38.293,38.293-38.293C62.275,2.539,79.421,19.684,79.421,40.832z"/>
<g>
	<path d="M62.43,33.142c0.153-0.963,0.236-1.929,0.247-2.898c0.011-0.969-0.084-1.801-0.258-2.504
		c-0.274-1.105-0.767-1.954-1.425-2.554c-0.658-0.597-1.506-1.019-2.544-1.242c-0.179-0.718-0.364-1.436-0.56-2.153
		c4.021,0.615,8.041,1.462,12.063,2.54c0.343,0.637,0.669,1.272,0.979,1.909c-0.662-0.019-1.154,0.122-1.488,0.423
		c-0.334,0.3-0.563,0.785-0.711,1.454c-0.149,0.671-0.244,1.835-0.439,3.529c-1.204,10.679-7.534,22.768-13.729,35.372
		c-2.295,0.277-4.59,0.48-6.885,0.609c-1.164-10.579-4.156-21.393-6.649-32.161c-3.053,10.78-6.52,21.572-7.642,31.985
		c-2.41-0.193-4.821-0.471-7.231-0.83c-6.142-12.648-11.439-24.712-11.484-35.597c-0.005-1.593,0.007-2.665-0.104-3.239
		c-0.11-0.574-0.298-0.973-0.585-1.199s-0.709-0.342-1.272-0.347c0.31-0.637,0.636-1.272,0.979-1.909
		c5.188-1.391,10.375-2.396,15.563-3.018c-0.153,0.733-0.299,1.466-0.438,2.199c-1.063,0.243-1.899,0.654-2.514,1.217
		c-0.614,0.563-1.028,1.303-1.214,2.22c-0.23,1.157-0.278,2.924,0.037,5.339c0.905,7.506,3.104,15.269,5.619,23.167
		c2.281-11.358,6.678-23.149,9.704-34.886c2.18-0.028,4.358,0.011,6.538,0.118c3.229,11.752,7.009,23.412,8.499,34.655
		C58.54,47.684,61.23,40.226,62.43,33.142z"/>
</g>
<path d="M70.327,76.468c1.528-0.18,3.04-0.95,4.256-2.166s1.985-2.728,2.166-4.255c0.112-0.949-0.038-1.816-0.382-2.568
	l-3.254-3.252l-8.594,8.592l3.293,3.293C68.553,76.436,69.4,76.577,70.327,76.468z"/>
<path d="M98.064,89.175l-19.01-19.009c0.038,0.432,0.033,0.877-0.021,1.337c-0.206,1.738-1.071,3.447-2.438,4.813
	c-1.365,1.367-3.074,2.231-4.813,2.438c-0.268,0.031-0.527,0.047-0.785,0.047c-0.188,0-0.363-0.031-0.545-0.048l19.018,19.019
	c1.95,1.951,5.459,1.609,7.831-0.765C99.676,94.634,100.018,91.128,98.064,89.175z"/>
<path d="M41.128,80.625c-21.942,0-39.793-17.851-39.793-39.793c0-21.942,17.851-39.793,39.793-39.793
	c21.942,0,39.793,17.851,39.793,39.793C80.921,62.774,63.07,80.625,41.128,80.625z M41.128,4.039
	c-20.288,0-36.793,16.505-36.793,36.793c0,20.288,16.505,36.793,36.793,36.793c20.288,0,36.793-16.505,36.793-36.793
	C77.921,20.544,61.416,4.039,41.128,4.039z"/>
</svg>
