<?xml version="1.0" encoding="utf-8"?>
<!-- Generator: Adobe Illustrator 16.0.0, SVG Export Plug-In . SVG Version: 6.00 Build 0)  -->
<!DOCTYPE svg PUBLIC "-//W3C//DTD SVG 1.1//EN" "http://www.w3.org/Graphics/SVG/1.1/DTD/svg11.dtd">
<svg version="1.1" id="Layer_1" xmlns="http://www.w3.org/2000/svg" xmlns:xlink="http://www.w3.org/1999/xlink" x="0px" y="0px"
	 width="100px" height="100px" viewBox="0 0 100 100" enable-background="new 0 0 100 100" xml:space="preserve">
<path fill="none" stroke="#000000" stroke-width="3" stroke-miterlimit="10" d="M79.421,40.832
	c0,21.148-17.145,38.293-38.293,38.293c-21.149,0-38.293-17.145-38.293-38.293S19.979,2.539,41.128,2.539
	C62.276,2.539,79.421,19.684,79.421,40.832z"/>
<g>
	<path d="M62.429,33.142c0.154-0.963,0.237-1.929,0.248-2.898c0.011-0.969-0.084-1.801-0.258-2.504
		c-0.275-1.105-0.767-1.954-1.425-2.554c-0.658-0.597-1.506-1.019-2.544-1.242c-0.178-0.718-0.364-1.436-0.56-2.153
		c4.021,0.615,8.042,1.462,12.063,2.54c0.343,0.637,0.669,1.272,0.979,1.909c-0.663-0.019-1.155,0.122-1.489,0.423
		c-0.333,0.3-0.563,0.785-0.711,1.454c-0.149,0.671-0.244,1.835-0.439,3.529c-1.204,10.679-7.534,22.768-13.729,35.371
		c-2.295,0.278-4.59,0.481-6.885,0.61c-1.164-10.579-4.156-21.393-6.649-32.161c-3.053,10.78-6.52,21.572-7.642,31.985
		c-2.41-0.193-4.821-0.471-7.231-0.83c-6.142-12.649-11.439-24.712-11.484-35.597c-0.005-1.593,0.007-2.665-0.104-3.239
		c-0.11-0.574-0.298-0.973-0.585-1.199c-0.287-0.226-0.709-0.342-1.272-0.347c0.31-0.637,0.636-1.272,0.979-1.909
		c5.188-1.391,10.375-2.396,15.563-3.018c-0.153,0.733-0.299,1.466-0.438,2.199c-1.063,0.243-1.899,0.654-2.514,1.217
		c-0.614,0.563-1.028,1.303-1.214,2.22c-0.23,1.157-0.278,2.924,0.037,5.339c0.905,7.506,3.104,15.269,5.619,23.167
		c2.281-11.358,6.678-23.149,9.704-34.886c2.18-0.028,4.358,0.011,6.538,0.118c3.229,11.752,7.009,23.412,8.498,34.655
		C58.54,47.684,61.231,40.226,62.429,33.142z"/>
</g>
<path d="M70.327,76.468c1.528-0.18,3.04-0.95,4.256-2.166s1.985-2.728,2.166-4.255c0.112-0.949-0.038-1.816-0.382-2.568
	l-3.253-3.253l-8.594,8.593l3.292,3.292C68.553,76.436,69.401,76.577,70.327,76.468z"/>
<path d="M98.064,89.175l-19.01-19.009c0.039,0.431,0.034,0.877-0.02,1.337c-0.206,1.738-1.071,3.447-2.438,4.813
	c-1.365,1.367-3.074,2.232-4.813,2.438c-0.267,0.031-0.527,0.047-0.785,0.047c-0.188,0-0.363-0.031-0.545-0.048l19.017,19.018
	c1.951,1.951,5.459,1.61,7.832-0.764C99.676,94.634,100.018,91.128,98.064,89.175z"/>
</svg>
