<?xml version="1.0" encoding="utf-8"?>
<!-- Generator: Adobe Illustrator 16.0.0, SVG Export Plug-In . SVG Version: 6.00 Build 0)  -->
<!DOCTYPE svg PUBLIC "-//W3C//DTD SVG 1.1//EN" "http://www.w3.org/Graphics/SVG/1.1/DTD/svg11.dtd">
<svg version="1.1" id="Layer_1" xmlns="http://www.w3.org/2000/svg" xmlns:xlink="http://www.w3.org/1999/xlink" x="0px" y="0px"
	 width="100px" height="100px" viewBox="0 0 100 100" enable-background="new 0 0 100 100" xml:space="preserve">
<path fill="#7A380C" d="M23.83,94.895C23.83,94.895,23.831,94.895,23.83,94.895c-3.847,0-7.163-1.171-9.59-3.387
	c-3.996-3.647-5.284-9.681-3.625-16.99c1.588-6.997,5.713-14.411,11.616-20.879c8.322-9.114,18.819-14.777,27.394-14.777
	c0.929,0,1.833,0.068,2.697,0.202l28.28-30.721c1.554-1.689,3.691-2.657,5.865-2.657c1.709,0,3.316,0.613,4.526,1.725
	c2.844,2.618,2.813,7.3-0.068,10.436l-28.05,30.473c2.498,8.709-2.083,21.327-11.645,31.795
	C42.908,89.23,32.407,94.895,23.83,94.895z M49.625,41.994c-7.723,0-17.334,5.271-25.081,13.757
	C19,61.823,15.139,68.734,13.669,75.211c-1.399,6.162-0.446,11.129,2.683,13.983c1.867,1.705,4.383,2.569,7.478,2.569
	c7.725,0.001,17.338-5.273,25.089-13.762c8.999-9.854,13.405-22.004,10.713-29.547l-0.317-0.891l29.307-31.838
	c1.714-1.865,1.826-4.562,0.253-6.011c-0.64-0.587-1.472-0.897-2.406-0.897c-1.3,0-2.598,0.6-3.561,1.646L53.435,42.48l-0.877-0.189
	C51.646,42.094,50.659,41.994,49.625,41.994z"/>
<path fill="#B25C0B" d="M89.934,7.519c-2.214-2.036-5.878-1.661-8.179,0.84L52.889,39.717c-8.137-1.76-20.014,3.543-29.501,13.935
	C11.555,66.614,7.929,82.585,15.296,89.308c7.367,6.729,22.941,1.672,34.779-11.294c9.683-10.604,13.858-23.206,11.031-31.129
	l28.666-31.142C92.073,13.239,92.149,9.559,89.934,7.519z"/>
<path fill="#C66A13" d="M17.782,86.749c6.208,5.668,19.679,1.022,30.086-10.376c10.411-11.402,13.813-25.236,7.603-30.902
	c-6.208-5.674-19.676-1.025-30.087,10.374C14.98,67.244,11.572,81.084,17.782,86.749z"/>
<path fill="#8C430B" d="M58.951,43.131l27.717-29.862c2.188-2.381,2.639-4.641,3.734-3.633l0,0c1.098,1.01,0.204,3.758-1.985,6.142
	L60.701,45.641L58.951,43.131z"/>
<path fill="#D66D0F" d="M56.281,40.903l27.608-30.4c1.819-2.005,3.664-2.555,2.75-3.384l0,0c-0.912-0.834-3.132,0.12-4.956,2.125
	L54.071,39.643c0,0-0.247,0.783-1.576,0.594S42.25,37.292,27.042,50.625c-13.74,12.046,12.792-13.667,26.267-7.053
	c1.049,0.515,6.274,2.761,5.643,11.067C58.365,62.349,67.125,51.708,56.281,40.903z"/>
<path fill="#E57B1A" d="M18.282,86.235c2.351,2.148,10.459,1.961,7.756,1.063c-5.341-1.771-5.035-15.577,0.75-21.916
	c9.569-10.473,7.596-18.433-1.973-7.957C15.258,67.901,12.328,80.804,18.282,86.235z"/>
<path fill="#9E5012" d="M54.945,45.532c-2.35-2.148-10.613-1.96-7.91-1.063c5.34,1.772,5.19,15.577-0.596,21.916
	c-9.568,10.475-7.595,18.433,1.974,7.957C57.97,63.867,60.9,50.964,54.945,45.532z"/>
</svg>
